<?xml version="1.0" encoding="utf-8" standalone="no"?>
<!DOCTYPE svg PUBLIC "-//W3C//DTD SVG 1.1//EN"
  "http://www.w3.org/Graphics/SVG/1.1/DTD/svg11.dtd">
<svg xmlns:xlink="http://www.w3.org/1999/xlink" width="648pt" height="360pt" viewBox="0 0 648 360" xmlns="http://www.w3.org/2000/svg" version="1.1">
 <metadata>
  <rdf:RDF xmlns:dc="http://purl.org/dc/elements/1.1/" xmlns:cc="http://creativecommons.org/ns#" xmlns:rdf="http://www.w3.org/1999/02/22-rdf-syntax-ns#">
   <cc:Work>
    <dc:type rdf:resource="http://purl.org/dc/dcmitype/StillImage"/>
    <dc:date>2025-09-09T04:30:52.877036</dc:date>
    <dc:format>image/svg+xml</dc:format>
    <dc:creator>
     <cc:Agent>
      <dc:title>Matplotlib v3.6.3, https://matplotlib.org/</dc:title>
     </cc:Agent>
    </dc:creator>
   </cc:Work>
  </rdf:RDF>
 </metadata>
 <defs>
  <style type="text/css">*{stroke-linejoin: round; stroke-linecap: butt}</style>
 </defs>
 <g id="figure_1">
  <g id="patch_1">
   <path d="M 0 360 
L 648 360 
L 648 0 
L 0 0 
z
" style="fill: #ffffff"/>
  </g>
  <g id="axes_1">
   <g id="patch_2">
    <path d="M 64.8 100.8 
L 187.2 100.8 
L 187.2 259.2 
L 64.8 259.2 
z
" clip-path="url(#p0134ccd79c)" style="fill: #10b981"/>
   </g>
   <g id="patch_3">
    <path d="M 201.6 79.2 
L 324 79.2 
L 324 259.2 
L 201.6 259.2 
z
" clip-path="url(#p0134ccd79c)" style="fill: #84cc16"/>
   </g>
   <g id="patch_4">
    <path d="M 338.4 122.4 
L 460.8 122.4 
L 460.8 259.2 
L 338.4 259.2 
z
" clip-path="url(#p0134ccd79c)" style="fill: #9fb1c5"/>
   </g>
   <g id="patch_5">
    <path d="M 475.2 100.8 
L 583.2 100.8 
L 583.2 259.2 
L 475.2 259.2 
z
" clip-path="url(#p0134ccd79c)" style="fill: #e8eef6; opacity: 0.75"/>
   </g>
   <g id="patch_6">
    <path d="M 118.668992 296.81217 
Q 121.703664 292.181801 125.863872 289.759763 
Q 130.024079 287.337724 135.01063 287.337724 
Q 143.601744 287.337724 148.103886 292.637714 
Q 152.606029 297.923458 152.606029 308.039032 
L 152.606029 338.4 
L 136.577831 338.4 
L 136.577831 312.398701 
Q 136.620573 311.814563 136.634821 311.201929 
Q 136.663315 310.575049 136.663315 309.421018 
Q 136.663315 304.121028 135.096114 301.741731 
Q 133.543159 299.348187 130.066821 299.348187 
Q 125.536184 299.348187 123.057156 303.095223 
Q 120.592375 306.828012 120.492644 313.908914 
L 120.492644 338.4 
L 104.464447 338.4 
L 104.464447 312.398701 
Q 104.464447 304.121028 103.039718 301.741731 
Q 101.614989 299.348187 97.967684 299.348187 
Q 93.380058 299.348187 90.886782 303.10947 
Q 88.393507 306.870754 88.393507 313.866172 
L 88.393507 338.4 
L 72.365309 338.4 
L 72.365309 288.534496 
L 88.393507 288.534496 
L 88.393507 295.829107 
Q 91.342695 291.61191 95.146721 289.474817 
Q 98.950747 287.337724 103.538373 287.337724 
Q 108.695891 287.337724 112.656637 289.830999 
Q 116.63163 292.324274 118.668992 296.81217 
z
M 167.476635 288.534496 
L 183.405102 288.534496 
L 183.405102 338.4 
L 167.476635 338.4 
L 167.476635 288.534496 
z
M 167.476635 269.115444 
L 183.405102 269.115444 
L 183.405102 282.123217 
L 167.476635 282.123217 
L 167.476635 269.115444 
z
M 232.654411 329.937112 
Q 229.363287 334.296781 225.388294 336.348391 
Q 221.427548 338.4 216.227289 338.4 
Q 207.094778 338.4 201.125165 331.219367 
Q 195.169799 324.024488 195.169799 312.883109 
Q 195.169799 301.713236 201.125165 294.575346 
Q 207.094778 287.423207 216.227289 287.423207 
Q 221.427548 287.423207 225.388294 289.474817 
Q 229.363287 291.512179 232.654411 295.928838 
L 232.654411 288.534496 
L 248.682608 288.534496 
L 248.682608 333.370708 
Q 248.682608 345.395418 241.088804 351.735461 
Q 233.495 358.075503 219.076746 358.075503 
Q 214.403636 358.075503 210.029719 357.363139 
Q 205.670049 356.650775 201.267638 355.183304 
L 201.267638 342.75967 
Q 205.442093 345.167461 209.44558 346.349986 
Q 213.463315 347.532511 217.509545 347.532511 
Q 225.345552 347.532511 228.992858 344.098915 
Q 232.654411 340.665319 232.654411 333.370708 
L 232.654411 329.937112 
z
M 222.139913 298.906521 
Q 217.196104 298.906521 214.432131 302.568073 
Q 211.682404 306.215379 211.682404 312.883109 
Q 211.682404 319.750301 214.346647 323.283629 
Q 217.025137 326.816956 222.139913 326.816956 
Q 227.126463 326.816956 229.890437 323.16965 
Q 232.654411 319.522345 232.654411 312.883109 
Q 232.654411 306.215379 229.890437 302.568073 
Q 227.126463 298.906521 222.139913 298.906521 
z
M 301.044949 302.11216 
Q 298.950598 301.129097 296.870494 300.673184 
Q 294.804638 300.203024 292.710287 300.203024 
Q 286.569706 300.203024 283.250088 304.149522 
Q 279.93047 308.081773 279.93047 315.419126 
L 279.93047 338.4 
L 264.002004 338.4 
L 264.002004 288.534496 
L 279.93047 288.534496 
L 279.93047 296.726686 
Q 283.007884 291.825619 286.982877 289.588795 
Q 290.972118 287.337724 296.542807 287.337724 
Q 297.340655 287.337724 298.266729 287.40896 
Q 299.207049 287.465949 300.98796 287.693906 
L 301.044949 302.11216 
z
" clip-path="url(#p0134ccd79c)" style="fill: #e8eef6"/>
   </g>
   <g id="patch_7">
    <path d="M 342.191114 326.289806 
L 315.391967 326.289806 
L 311.160523 338.4 
L 293.921306 338.4 
L 318.540618 271.922159 
L 338.985474 271.922159 
L 363.604786 338.4 
L 346.379816 338.4 
L 342.191114 326.289806 
z
M 319.666153 313.951656 
L 337.874186 313.951656 
L 328.784417 287.508691 
L 319.666153 313.951656 
z
M 372.425638 271.922159 
L 389.565124 271.922159 
L 389.565124 338.4 
L 372.425638 338.4 
L 372.425638 271.922159 
z
" clip-path="url(#p0134ccd79c)" style="fill: #10b981"/>
   </g>
   <g id="patch_8">
    <path d="M 414.184436 274.372693 
L 414.184436 288.534496 
L 430.625805 288.534496 
L 430.625805 299.932325 
L 414.184436 299.932325 
L 414.184436 321.075299 
Q 414.184436 324.551637 415.566422 325.776904 
Q 416.948409 327.00217 421.051628 327.00217 
L 429.243818 327.00217 
L 429.243818 338.4 
L 415.566422 338.4 
Q 406.134718 338.4 402.18822 334.467749 
Q 398.255969 330.52125 398.255969 321.075299 
L 398.255969 299.932325 
L 390.32023 299.932325 
L 390.32023 288.534496 
L 398.255969 288.534496 
L 398.255969 274.372693 
L 414.184436 274.372693 
z
M 440.376292 288.534496 
L 456.304758 288.534496 
L 456.304758 338.4 
L 440.376292 338.4 
L 440.376292 288.534496 
z
M 440.376292 269.115444 
L 456.304758 269.115444 
L 456.304758 282.123217 
L 440.376292 282.123217 
L 440.376292 269.115444 
z
M 495.35301 298.735553 
Q 490.053019 298.735553 487.274798 302.539579 
Q 484.496577 306.343604 484.496577 313.50999 
Q 484.496577 320.676375 487.274798 324.494648 
Q 490.053019 328.298674 495.35301 328.298674 
Q 500.567517 328.298674 503.317243 324.494648 
Q 506.081217 320.676375 506.081217 313.50999 
Q 506.081217 306.343604 503.317243 302.539579 
Q 500.567517 298.735553 495.35301 298.735553 
z
M 495.35301 287.337724 
Q 508.21831 287.337724 515.455932 294.2904 
Q 522.693553 301.228828 522.693553 313.50999 
Q 522.693553 325.805398 515.455932 332.758074 
Q 508.21831 339.696503 495.35301 339.696503 
Q 482.444968 339.696503 475.164604 332.758074 
Q 467.884241 325.805398 467.884241 313.50999 
Q 467.884241 301.228828 475.164604 294.2904 
Q 482.444968 287.337724 495.35301 287.337724 
z
M 584.396772 308.039032 
L 584.396772 338.4 
L 568.368574 338.4 
L 568.368574 333.456191 
L 568.368574 315.162675 
Q 568.368574 308.708654 568.083629 306.258121 
Q 567.798683 303.807587 567.086319 302.653557 
Q 566.145998 301.086356 564.536054 300.217271 
Q 562.940358 299.348187 560.888749 299.348187 
Q 555.902198 299.348187 553.052741 303.209201 
Q 550.203284 307.055969 550.203284 313.866172 
L 550.203284 338.4 
L 534.274817 338.4 
L 534.274817 288.534496 
L 550.203284 288.534496 
L 550.203284 295.829107 
Q 553.807847 291.469437 557.854077 289.40358 
Q 561.914553 287.337724 566.81562 287.337724 
Q 575.449476 287.337724 579.923124 292.637714 
Q 584.396772 297.923458 584.396772 308.039032 
z
" clip-path="url(#p0134ccd79c)" style="fill: #e8eef6"/>
   </g>
  </g>
 </g>
 <defs>
  <clipPath id="p0134ccd79c">
   <rect x="0" y="0" width="648" height="360"/>
  </clipPath>
 </defs>
</svg>
